<svg width="1080" height="1080" viewBox="0 0 1080 1080" fill="none" xmlns="http://www.w3.org/2000/svg">
<g clip-path="url(#clip0_137_191)">
<rect width="1080" height="1080" rx="540" fill="#724242"/>
<g style="mix-blend-mode:lighten">
<rect width="1920" height="1080" fill="#5936CD"/>
</g>
<rect opacity="0.2" width="1920" height="1080" fill="black"/>
<path d="M530.134 400.996C540.958 385.769 555.88 373.064 574.9 362.866C593.919 352.653 615.636 347.547 640.06 347.547C668.474 347.547 694.19 354.549 717.207 368.553C740.24 382.558 758.464 402.479 771.88 428.302C785.288 454.132 792 484.068 792 518.108C792 552.133 785.288 582.26 771.88 608.495C758.464 634.731 740.24 655.057 717.207 669.467C694.19 683.884 668.474 691.085 640.06 691.085C615.636 691.085 594.11 686.078 575.48 676.071C556.866 666.065 541.753 653.444 530.134 638.216V844.217H446.046V352.928H530.134V400.996ZM706.108 518.108C706.108 498.095 701.995 480.773 693.785 466.157C685.59 451.541 674.781 440.433 661.373 432.827C647.957 425.229 633.44 421.422 617.83 421.422C602.618 421.422 588.3 425.328 574.869 433.133C561.453 440.946 550.636 452.259 542.426 467.074C534.231 481.874 530.134 499.288 530.134 519.3C530.134 539.321 534.231 556.743 542.426 571.557C550.636 586.38 561.453 597.694 574.869 605.499C588.3 613.311 602.618 617.21 617.83 617.21C633.44 617.21 647.957 613.204 661.373 605.193C674.781 597.181 685.59 585.776 693.785 570.976C701.995 556.162 706.108 538.534 706.108 518.108Z" fill="#FFFBF7"/>
<g clip-path="url(#clip1_137_191)">
<path d="M291.228 406.268C302.798 399.783 308.014 388.218 315.295 378.96C343.301 343.353 370.325 306.974 397.96 271.073C407.506 258.672 422.552 260.491 435.673 258.529C474.588 252.711 513.636 247.781 552.617 242.391C553.833 242.222 554.875 240.801 556.155 239.096C568.983 238.227 581.654 238.227 595.367 238.227C604.529 245.891 605.432 252.216 598.845 262.501C591.067 274.643 581.889 285.816 573.391 297.46C569.042 303.418 569.145 307.609 574.463 312.691C584.881 322.644 595.13 332.798 604.767 344.583C605.32 352.618 605.32 360.104 605.32 368.611C595.987 373.174 596.201 383.264 592.195 390.13C568.208 431.242 533.345 458.321 489.192 474.698C458.807 485.969 427.652 492.055 395.207 492.171C376.128 492.24 376.161 492.684 371.242 472.824C368.404 461.369 365.105 450.017 362.655 438.483C360.728 429.415 358.044 422.754 346.746 427.231C344.807 427.999 342.342 427.438 339.195 427.515C334.361 419.04 341.113 416.806 347.267 413.516C366.606 408.411 385.7 409.912 404.457 408.597C421.775 407.383 439.129 405.079 456.59 405.718C463.732 405.98 469.638 403.194 474.036 397.555C509.837 351.656 544.449 304.856 579.503 258.391C580.164 257.515 580.469 256.408 580.368 255.077C577.564 252.329 574.164 253.789 571.031 254.219C524.016 260.665 477.065 267.588 429.993 273.601C418.273 275.098 409.335 279.766 402.065 289.429C373.313 327.646 343.894 365.359 314.826 403.338C312.824 405.954 310.431 408.423 309.982 412.908C316.126 415.924 323.903 410.616 330.276 416.422C332.591 421.045 332.216 424.694 328.792 428.714C315.987 431.508 303.674 437.402 291.897 426.038C291.228 419.297 291.228 413.284 291.228 406.268Z" fill="#5936CD" fill-opacity="0.5"/>
<path d="M312.319 621.302C313.505 601.97 315.482 582.602 318.135 563.328C318.817 558.373 320.176 552.906 326.154 549.574C330.517 546.085 334.438 546.088 339.372 548.501C347.802 554.168 348.136 562.273 349.169 570.145C351.325 586.571 353.596 602.983 355.824 620.351C341.673 621.302 327.518 621.302 312.319 621.302Z" fill="#D8C6F3"/>
<path d="M327.538 517.1C326.841 487.395 326.884 458.491 326.937 428.538C329.914 425.155 328.787 421.76 329.339 417.983C333.479 406.329 344.014 401.739 351.883 394.851C373.322 376.083 394.702 357.236 416.321 338.67C418.853 336.496 421.332 334.259 424.238 332.593C428.266 330.283 432.612 328.335 436.237 332.791C439.798 337.168 437.419 341.086 434.136 344.568C426.748 352.406 418.071 358.803 410.069 365.954C393.787 380.502 377.218 394.733 360.563 408.858C357.444 411.504 353.91 413.517 349.478 415.585C343.698 417.692 339.65 420.479 338.228 426.773C338.185 456.47 338.1 485.402 338.07 515.361C335.272 519.69 331.91 519.678 327.538 517.1Z" fill="#096C70"/>
<path d="M326.034 516.631C329.957 516.488 333.115 516.677 337.199 516.627C347.794 522.369 350.178 529.552 341.041 538.867C336.737 542.847 332.692 542.747 327.612 540.019C316.356 532.537 319.246 524.858 326.034 516.631Z" fill="#D6C5F3"/>
<path d="M326.537 539.918C330.676 539.19 334.53 539.094 339.342 539.108C341.811 542.067 343.625 544.889 340.617 548.612C336.394 549.068 332.605 548.994 327.882 549.051C324.414 546.491 323.899 543.636 326.537 539.918Z" fill="#0B6C72"/>
<path d="M349.771 415.971C363.676 398.949 382.399 386.124 398.866 370.797C409.16 361.216 420.199 352.438 430.758 343.134C433.555 340.669 438.931 338.101 434.695 333.521C430.481 328.964 427.419 334.285 424.66 336.645C395.39 361.684 366.249 386.872 337.04 411.982C335.1 413.649 332.898 415.014 330.144 416.859C322.44 417.572 315.412 417.991 308.38 418.293C306.244 418.384 303.644 419.257 302.161 417.205C300.085 414.331 302.896 412.444 304.339 410.527C314.376 397.193 324.457 383.891 334.62 370.652C357.205 341.229 379.925 311.909 402.404 282.405C407.377 275.878 412.986 271.988 421.558 270.856C474.86 263.819 528.089 256.224 581.353 248.899C584.004 248.534 587.394 246.155 589.277 249.845C590.758 252.747 587.679 254.467 586.217 256.406C550.268 304.083 514.195 351.667 478.347 399.419C472.931 406.634 466.25 409.322 457.441 409.762C421.863 411.541 386.31 413.826 349.771 415.971Z" fill="#FCFDFD"/>
<path d="M475.171 412.47C498.558 382.201 521.318 352.474 544.026 322.708C552.077 312.155 552.012 312.117 561.066 321.746C569.453 330.665 577.576 339.858 586.366 348.362C591.108 352.949 591.705 357.005 589.429 363.067C570.531 413.406 533.339 444.621 484.692 463.978C454.01 476.186 421.735 480.455 389.095 482.791C385.006 483.084 381.037 483.643 379.66 477.909C375.349 459.964 370.715 442.096 366.069 423.652C396.092 421.922 425.31 420.154 454.541 418.615C461.705 418.238 468.567 417.385 475.171 412.47Z" fill="#FCFCFC"/>
</g>
</g>
<defs>
<clipPath id="clip0_137_191">
<rect width="1080" height="1080" rx="540" fill="white"/>
</clipPath>
<clipPath id="clip1_137_191">
<rect width="314.092" height="383.075" fill="white" transform="translate(289 236)"/>
</clipPath>
</defs>
</svg>
